<?xml version="1.0" encoding="utf-8"?>
<!-- Generator: Adobe Illustrator 22.0.0, SVG Export Plug-In . SVG Version: 6.00 Build 0)  -->
<svg version="1.1" id="Layer_1" xmlns="http://www.w3.org/2000/svg" xmlns:xlink="http://www.w3.org/1999/xlink" x="0px" y="0px"
	 viewBox="0 0 63.8 65.3" style="enable-background:new 0 0 63.8 65.3;" xml:space="preserve">
<style type="text/css">
	.st0{fill:#D1D400;}
</style>
<path class="st0" d="M12.8,56.6c-5.5,0-10-4.5-10-10L2,11.4C2,6,7.1,1.3,12.9,1.3h38c5.5,0,10,4.5,10,10l0.9,35.2
	c0,5.5-5.4,10.9-10.9,10.9L12.8,56.6z"/>
<path d="M50.9,2.8c4.7,0,8.5,3.8,8.5,8.5l0.9,35.2c0,4.7-4.7,9.4-9.4,9.4l-38-0.9c-4.7,0-8.5-3.8-8.5-8.5L3.5,11.3
	c0-4.7,4.7-8.5,9.4-8.5L50.9,2.8 M50.9-0.2h-38C6.3-0.2,0.5,5.2,0.5,11.3v0l0,0l0.9,35.2c0,6.3,5.2,11.5,11.5,11.5l38,0.9l0,0h0
	c6.4,0,12.4-6,12.4-12.4v0l0,0l-0.9-35.2C62.4,5,57.2-0.2,50.9-0.2L50.9-0.2z"/>
<path d="M39,20.7l-8.5,9.1v-6.5h-0.9c-4.5,1.5-6.9,5-6.9,9c0,3.6,2.3,7.6,6.9,8.8c0.3,0.1,0.7,0.4,1,0.4h2.7
	c0.4-0.2,0.6-0.4,1.1-0.4c3.3-0.5,7.2-5.2,6.8-8.6h4.7V33c-0.2,1.2-0.3,2.4-0.7,3.6c-0.4,1.2-1.2,2.5-1.7,3.4
	c-0.9,1.4-2.7,3.3-4.4,4.2c-0.4,0.3-1,0.6-1.5,0.8c-0.3,0.2-0.8,0.2-1.1,0.4C34.2,46,33.5,46,31.8,46c-4.4,0-8.6-1.7-11.6-6.1
	c-0.8-1.2-1.2-2.1-1.7-3.5c-0.4-1.1-0.6-3.2-0.6-3.4v-1.6c0.3-1.1,0.4-2.1,0.6-3.2c0.3-0.7,0.5-1.6,0.9-2.3c0.2-0.4,0.5-1,0.8-1.4
	c0.1-0.2,0.3-0.3,0.4-0.4c1.9-2.5,3.6-4,6.1-4.9c1.2-0.4,2.5-0.6,3.7-1v-6.6L39,20.7z"/>
</svg>
