<?xml version="1.0" encoding="utf-8"?>
<!-- Generator: Adobe Illustrator 22.0.0, SVG Export Plug-In . SVG Version: 6.00 Build 0)  -->
<svg version="1.1" id="Layer_1" xmlns="http://www.w3.org/2000/svg" xmlns:xlink="http://www.w3.org/1999/xlink" x="0px" y="0px"
	 viewBox="0 0 63.8 65.3" style="enable-background:new 0 0 63.8 65.3;" xml:space="preserve">
<style type="text/css">
	.st0{fill:#D1D400;}
</style>
<path class="st0" d="M12.8,56.6c-5.5,0-10-4.5-10-10L2,11.4C2,6,7.1,1.3,12.9,1.3h38c5.5,0,10,4.5,10,10l0.9,35.2
	c0,5.5-5.4,10.9-10.9,10.9L12.8,56.6z"/>
<path d="M50.9,2.8c4.7,0,8.5,3.8,8.5,8.5l0.9,35.2c0,4.7-4.7,9.4-9.4,9.4l-38-0.9c-4.7,0-8.5-3.8-8.5-8.5L3.5,11.3
	c0-4.7,4.7-8.5,9.4-8.5L50.9,2.8 M50.9-0.2h-38C6.3-0.2,0.5,5.2,0.5,11.3v0l0,0l0.9,35.2c0,6.3,5.2,11.5,11.5,11.5l38,0.9l0,0h0
	c6.4,0,12.4-6,12.4-12.4v0l0,0l-0.9-35.2C62.4,5,57.2-0.2,50.9-0.2L50.9-0.2z"/>
<path id="XMLID_6_" d="M41.1,21.1v16.4c0,2.9-3.3,4.6-5.7,2.9l-11.3-8.2c-2-1.4-2-4.4,0-5.8l11.3-8.2C37.8,16.5,41.1,18.1,41.1,21.1
	z"/>
</svg>
