<?xml version="1.0" encoding="utf-8"?>
<!-- Generator: Adobe Illustrator 22.0.0, SVG Export Plug-In . SVG Version: 6.00 Build 0)  -->
<svg version="1.1" id="Layer_1" xmlns="http://www.w3.org/2000/svg" xmlns:xlink="http://www.w3.org/1999/xlink" x="0px" y="0px"
	 viewBox="0 0 63.8 65.3" style="enable-background:new 0 0 63.8 65.3;" xml:space="preserve">
<style type="text/css">
	.st0{fill:#D1D400;}
</style>
<path class="st0" d="M12.8,56.6c-5.5,0-10-4.5-10-10L2,11.4C2,6,7.1,1.3,12.9,1.3h38c5.5,0,10,4.5,10,10l0.9,35.2
	c0,5.5-5.4,10.9-10.9,10.9L12.8,56.6z"/>
<path d="M50.9,2.8c4.7,0,8.5,3.8,8.5,8.5l0.9,35.2c0,4.7-4.7,9.4-9.4,9.4l-38-0.9c-4.7,0-8.5-3.8-8.5-8.5L3.5,11.3
	c0-4.7,4.7-8.5,9.4-8.5L50.9,2.8 M50.9-0.2h-38C6.3-0.2,0.5,5.2,0.5,11.3v0l0,0l0.9,35.2c0,6.3,5.2,11.5,11.5,11.5l38,0.9l0,0h0
	c6.4,0,12.4-6,12.4-12.4v0l0,0l-0.9-35.2C62.4,5,57.2-0.2,50.9-0.2L50.9-0.2z"/>
<g>
	<path d="M43.6,31.5V20c0,0,0,0,0,0c0-0.4-0.1-0.8-0.3-1.1c-0.4-0.5-1-0.9-1.7-0.9c0,0,0,0,0,0H30c-1.1,0-2,0.9-2,2s0.9,2,2,2h9.5
		v9.5c0,1.1,0.9,2,2,2C42.7,33.5,43.6,32.6,43.6,31.5z"/>
	<path d="M33.7,41.3H22.2c0,0,0,0,0,0c-0.4,0-0.8-0.1-1.1-0.3c-0.5-0.4-0.9-1-0.9-1.7c0,0,0,0,0,0V27.8c0-1.1,0.9-2,2-2
		c1.1,0,2,0.9,2,2v9.5h9.5c1.1,0,2,0.9,2,2C35.7,40.4,34.8,41.3,33.7,41.3z"/>
	<path d="M25.8,39.2c-1,1-2.6,1-3.6,0l0,0c-1-1-1-2.6,0-3.6l15.5-15.5c1-1,2.6-1,3.6,0l0,0c1,1,1,2.6,0,3.6L25.8,39.2z"/>
</g>
</svg>
