<?xml version="1.0" encoding="utf-8"?>
<!-- Generator: Adobe Illustrator 22.0.0, SVG Export Plug-In . SVG Version: 6.00 Build 0)  -->
<svg version="1.1" id="Layer_1" xmlns="http://www.w3.org/2000/svg" xmlns:xlink="http://www.w3.org/1999/xlink" x="0px" y="0px"
	 viewBox="0 0 447.5 202.8" style="enable-background:new 0 0 447.5 202.8;" xml:space="preserve">
<style type="text/css">
	.st0{fill:#D1D400;}
	.st1{fill:#FFFFFF;}
	.st2{font-family:'PeintureFraiche';}
	.st3{font-size:48px;}
</style>
<polyline points="57.6,177.1 38.9,151.5 112.7,151.5 112.7,202.8 38.9,202.8 57.6,177.1 "/>
<polyline points="389.9,177.1 408.6,151.5 334.9,151.5 334.9,202.8 408.6,202.8 389.9,177.1 "/>
<rect x="85.2" y="142.8" class="st0" width="277.2" height="51.3"/>
<g>
	<path class="st1" d="M99.8,176c6.4,0,6.4-10,0-10S93.3,176,99.8,176L99.8,176z"/>
</g>
<g>
	<path class="st1" d="M347.8,176c6.4,0,6.4-10,0-10C341.3,166,341.3,176,347.8,176L347.8,176z"/>
</g>
<polygon class="st0" points="6.6,189.2 8.6,177.3 0,168.8 12,167.1 17.3,156.3 22.6,167.1 34.6,168.9 25.9,177.3 28,189.2 
	17.3,183.6 "/>
<polygon class="st0" points="419.5,189.2 421.6,177.3 412.9,168.8 424.9,167.1 430.2,156.3 435.6,167.1 447.5,168.9 438.9,177.3 
	440.9,189.2 430.2,183.6 "/>
<text transform="matrix(1 0 0 1 129.9082 186.3857)" class="st1 st2 st3">game over</text>
</svg>
