<?xml version="1.0" encoding="utf-8"?>
<!-- Generator: Adobe Illustrator 22.0.0, SVG Export Plug-In . SVG Version: 6.00 Build 0)  -->
<svg version="1.1" id="Layer_1" xmlns="http://www.w3.org/2000/svg" xmlns:xlink="http://www.w3.org/1999/xlink" x="0px" y="0px"
	 viewBox="0 0 225.1 284.9" style="enable-background:new 0 0 225.1 284.9;" xml:space="preserve">
<style type="text/css">
	.st0{fill:#D1D400;}
	.st1{fill:#FFFFFF;}
	.st2{font-family:'BebasNeue-Regular';}
	.st3{font-size:48px;}
	.st4{font-family:'PeintureFraiche';}
</style>
<path class="st0" d="M42.4,264.6c-18.6,0-33.8-15.2-33.8-33.9L5.4,36.4c0-18.1,17.3-33.9,37-33.9h140.3c18.7,0,33.9,15.2,33.9,33.9
	l3.1,194.3c0,18.7-18.3,37.1-37,37.1L42.4,264.6z"/>
<path d="M182.7,5c17.3,0,31.4,14.1,31.4,31.4l3.1,194.3c0,17.3-17.2,34.5-34.5,34.5l-140.3-3.1c-17.3,0-31.4-14.1-31.4-31.4
	L7.9,36.4C7.9,19.1,25.1,5,42.4,5H182.7 M182.7,0H42.4c-9.7,0-19.5,3.8-27.1,10.4c-8,7.1-12.5,16.3-12.5,26v0v0L6,230.8
	c0,20,16.3,36.3,36.3,36.4l140.2,3.1h0.1h0.1c9.6,0,19.5-4.5,27.3-12.2c7.8-7.8,12.2-17.7,12.2-27.3v0v0l-3.1-194.3
	C219.1,16.3,202.7,0,182.7,0L182.7,0z"/>
<text transform="matrix(1 0 0 1 58.8766 135.137)" class="st1 st2 st3">vocab</text>
<text transform="matrix(1 0 0 1 58.8767 184.386)" class="st1 st4 st3">terms</text>
</svg>
