<?xml version="1.0" encoding="utf-8"?>
<!-- Generator: Adobe Illustrator 16.0.0, SVG Export Plug-In . SVG Version: 6.00 Build 0)  -->
<!DOCTYPE svg PUBLIC "-//W3C//DTD SVG 1.1//EN" "http://www.w3.org/Graphics/SVG/1.1/DTD/svg11.dtd">
<svg version="1.1" id="Layer_1" xmlns="http://www.w3.org/2000/svg" xmlns:xlink="http://www.w3.org/1999/xlink" x="0px" y="0px"
	 width="324.549px" height="65.436px" viewBox="0 0 324.549 65.436" enable-background="new 0 0 324.549 65.436"
	 xml:space="preserve">
<g>
	<g opacity="0.1">
		<path fill="#010101" d="M323.684,56.07c0,4.703-5.014,9.365-10.07,9.365L11.07,64.585c-5.056,0-9.155-3.812-9.155-8.516L1,20.88
			c0-4.702,5.015-8.515,10.07-8.515h302.543c5.057,0,9.154,3.812,9.154,8.515L323.684,56.07z"/>
	</g>
	<g>
		<path fill="#FFFFFF" d="M12.496,56.719c-5.516,0-10.008-4.492-10.008-10.014L1.636,11.551C1.636,6.18,6.713,1.5,12.501,1.5
			h299.683c5.521,0,10.014,4.493,10.014,10.015l0.852,35.154c0,5.52-5.381,10.9-10.865,10.9L12.496,56.719z"/>
		<path fill="#61BAE9" d="M312.184,3c4.701,0,8.514,3.812,8.514,8.515l0.852,35.19c0,4.703-4.664,9.364-9.365,9.364L12.501,55.219
			c-4.701,0-8.514-3.811-8.514-8.514l-0.852-35.19C3.136,6.812,7.8,3,12.501,3H312.184 M312.184,0H12.501
			C5.914,0,0.136,5.381,0.136,11.515v0.036l0.001,0.037l0.851,35.156c0.021,6.331,5.178,11.475,11.514,11.475l299.672,0.852
			c6.367,0,12.375-6.009,12.375-12.364V46.67v-0.037l-0.852-35.156C323.676,5.145,318.52,0,312.184,0L312.184,0z"/>
	</g>
	<path fill="#C5E8FA" d="M314.371,12.151c-0.277-1.147-1.504-1.846-2.666-2.27c-4.701-1.717-10.011-1.127-14.848,0.213
		c-1.025,0.283-2.094,0.633-2.788,1.396c-0.694,0.766-0.824,2.075,0.005,2.709c0.335,0.256,0.766,0.364,1.184,0.463
		c4.608,1.075,9.399,1.459,14.138,1.131c1.194-0.084,2.432-0.226,3.457-0.812C313.877,14.396,314.637,13.253,314.371,12.151z"/>
	<g>
		<g>
			<defs>
				<path id="SVGID_1_" d="M321.549,46.705c0,4.703-4.664,9.364-9.365,9.364L12.501,55.219c-4.701,0-8.514-3.811-8.514-8.514
					l-0.852-35.19C3.136,6.812,7.8,3,12.501,3h299.683c4.701,0,8.514,3.812,8.514,8.515L321.549,46.705z"/>
			</defs>
			<clipPath id="SVGID_2_">
				<use xlink:href="#SVGID_1_"  overflow="visible"/>
			</clipPath>
			<path clip-path="url(#SVGID_2_)" fill="#C5E8FA" d="M3.136,11.515c0,0,5.037,17.809,10.997,23.343
				c5.96,5.533,12.771,6.599,22.562,6.599s284.854-6.812,284.854-6.812l1.49,21.426l-7.58,6.031H11.365l-17.24-10.643L3.136,11.515z
				"/>
		</g>
	</g>
</g>
</svg>
