<?xml version="1.0" encoding="utf-8"?>
<!-- Generator: Adobe Illustrator 22.0.0, SVG Export Plug-In . SVG Version: 6.00 Build 0)  -->
<svg version="1.1" id="Layer_1" xmlns="http://www.w3.org/2000/svg" xmlns:xlink="http://www.w3.org/1999/xlink" x="0px" y="0px"
	 viewBox="0 0 63.8 65.3" style="enable-background:new 0 0 63.8 65.3;" xml:space="preserve">
<style type="text/css">
	.st0{fill:#D1D400;}
	.st1{fill:none;stroke:#000000;stroke-width:2;stroke-miterlimit:10;}
</style>
<path class="st0" d="M12.8,56.6c-5.5,0-10-4.5-10-10L2,11.4C2,6,7.1,1.3,12.9,1.3h38c5.5,0,10,4.5,10,10l0.9,35.2
	c0,5.5-5.4,10.9-10.9,10.9L12.8,56.6z"/>
<path d="M50.9,2.8c4.7,0,8.5,3.8,8.5,8.5l0.9,35.2c0,4.7-4.7,9.4-9.4,9.4l-38-0.9c-4.7,0-8.5-3.8-8.5-8.5L3.5,11.3
	c0-4.7,4.7-8.5,9.4-8.5L50.9,2.8 M50.9-0.2h-38C6.3-0.2,0.5,5.2,0.5,11.3v0l0,0l0.9,35.2c0,6.3,5.2,11.5,11.5,11.5l38,0.9l0,0h0
	c6.4,0,12.4-6,12.4-12.4v0l0,0l-0.9-35.2C62.4,5,57.2-0.2,50.9-0.2L50.9-0.2z"/>
<g>
	<g>
		<g>
			<g>
				<path class="st1" d="M27.3,30.3c-3.1,0-8.5-4.3-8.8-7.9c-0.2-2.8,1.1-4.3,4.1-2.9"/>
				<ellipse class="st1" cx="24.9" cy="30.9" rx="1" ry="1"/>
			</g>
			<g>
				<path class="st1" d="M36.5,30.3c3.1,0,8.5-4.3,8.8-7.9c0.2-2.8-1.1-4.3-4.1-2.9"/>
				<ellipse class="st1" cx="38.8" cy="30.9" rx="1" ry="1"/>
			</g>
		</g>
		<path d="M42.2,16.2c0,9-4.4,18.1-10.3,18.1s-10.3-9.1-10.3-18.1"/>
		<path d="M42.9,16c0,0.4-0.3,0.7-0.7,0.7H21.6c-0.4,0-0.7-0.3-0.7-0.7l0,0c0-0.4,0.3-0.7,0.7-0.7h20.5C42.5,15.2,42.9,15.6,42.9,16
			L42.9,16z"/>
		<g>
			<rect x="30.5" y="33.6" width="2.7" height="8"/>
			<path d="M33.9,34.8c0,0.3-0.3,0.5-0.7,0.5h-2.7c-0.4,0-0.7-0.2-0.7-0.5v-0.1c0-0.3,0.3-0.5,0.7-0.5h2.7c0.4,0,0.7,0.2,0.7,0.5
				V34.8z"/>
			<path d="M33.9,40.7c0,0.3-0.3,0.5-0.7,0.5h-2.7c-0.4,0-0.7-0.2-0.7-0.5v-0.1c0-0.3,0.3-0.5,0.7-0.5h2.7c0.4,0,0.7,0.2,0.7,0.5
				V40.7z"/>
		</g>
		<g>
			<path d="M35.2,43c0,0.3-0.2,0.5-0.5,0.5H29c-0.3,0-0.5-0.2-0.5-0.5v-1.3c0-0.3,0.2-0.5,0.5-0.5h5.7c0.3,0,0.5,0.2,0.5,0.5V43z"/>
			<path d="M37,45c0,0.3-0.2,0.5-0.5,0.5h-9.3c-0.3,0-0.5-0.2-0.5-0.5v-1.9c0-0.3,0.2-0.5,0.5-0.5h9.3c0.3,0,0.5,0.2,0.5,0.5V45z"/>
			<path d="M39.3,47.5c0,0.3-0.2,0.5-0.5,0.5H25c-0.3,0-0.5-0.2-0.5-0.5v-2c0-0.3,0.2-0.5,0.5-0.5h13.8c0.3,0,0.5,0.2,0.5,0.5V47.5z
				"/>
		</g>
	</g>
</g>
</svg>
