<?xml version="1.0" encoding="utf-8"?>
<!-- Generator: Adobe Illustrator 22.0.0, SVG Export Plug-In . SVG Version: 6.00 Build 0)  -->
<svg version="1.1" id="Layer_1" xmlns="http://www.w3.org/2000/svg" xmlns:xlink="http://www.w3.org/1999/xlink" x="0px" y="0px"
	 viewBox="0 0 234 101.4" style="enable-background:new 0 0 234 101.4;" xml:space="preserve">
<style type="text/css">
	.st0{fill:#D1D400;}
	.st1{fill:#FFFFFF;}
	.st2{font-family:'PeintureFraiche';}
	.st3{font-size:48px;}
</style>
<path class="st0" d="M224.2,7.1C221.6,5.6,205.3,3,125.3,3C47.4,3,19.5,5.5,8.9,6.5c-0.7,0.1-2.2,1.7-3.5,7.3
	c-4.5,19.4-2.3,62.9,5,67.4c4.5,2.8,0.3,4.7,90,4.7c64.4,0,119.7-1.1,123.3-2.4c2.2-0.9,6-12.4,7.4-31.7
	C232.8,28.5,230,10.5,224.2,7.1z"/>
<path d="M225.7,4.5C223.8,3.4,218.1,0,125.3,0C47.4,0,19.3,2.5,8.6,3.5c-2.7,0.2-4.7,3.4-6.2,9.6C-1.8,30.9-1,77.7,8.8,83.7
	c7.8,4.8,55.6,5.1,91.5,5.1c0,0,0,0,0,0c47.4,0,119.7-0.7,124.4-2.6c6.7-2.7,9.1-31.1,9.3-34.3C235.5,32.3,234.1,9.4,225.7,4.5z
	 M231,51.8c-1.5,19.3-5.3,30.9-7.4,31.7c-3.6,1.3-58.9,2.4-123.3,2.4c-89.7,0-85.5-1.9-90-4.7c-7.3-4.5-9.5-48-5-67.4
	c1.3-5.6,2.8-7.2,3.5-7.3C19.5,5.5,47.4,3,125.3,3c80.1,0,96.3,2.6,98.9,4.1C230,10.5,232.8,28.5,231,51.8z"/>
<path d="M223.6,83.5c1.7-0.7,4.4-7.8,6.2-20.1c-20,6.6-41.8,6.3-63,5.8c-35.8-0.8-1.6,0.4-37.5-0.4c-22.9-0.5-46-3.1-68.2-8.5
	c-14.5-3.6-28.8-9.5-39.4-20C13.1,31.7,7.3,19.6,7.6,7.5c-0.7,1-1.5,2.9-2.3,6.2c-4.5,19.4-2.3,62.9,5,67.4c4.5,2.8,0.3,4.7,90,4.7
	C164.7,85.9,220,84.8,223.6,83.5z"/>
<text transform="matrix(1 0 0 1 96.272 53.7706)" class="st1 st2 st3">ok</text>
</svg>
