<?xml version="1.0" encoding="utf-8"?>
<!-- Generator: Adobe Illustrator 22.0.0, SVG Export Plug-In . SVG Version: 6.00 Build 0)  -->
<svg version="1.1" id="Layer_1" xmlns="http://www.w3.org/2000/svg" xmlns:xlink="http://www.w3.org/1999/xlink" x="0px" y="0px"
	 viewBox="0 0 63.8 65.3" style="enable-background:new 0 0 63.8 65.3;" xml:space="preserve">
<style type="text/css">
	.st0{fill-rule:evenodd;clip-rule:evenodd;}
	.st1{fill-rule:evenodd;clip-rule:evenodd;fill:#D1D400;}
</style>
<g id="XMLID_1_">
	<path class="st0" d="M50.9,2.8c4.7,0,8.5,3.8,8.5,8.5l0.8,35.2c0,4.7-4.7,9.4-9.4,9.4l-38-0.9c-4.7,0-8.5-3.8-8.5-8.5L3.5,11.4
		c0-4.7,4.7-8.5,9.4-8.5H50.9z M50.9-0.2h-38C6.3-0.2,0.5,5.2,0.5,11.4v0v0l0.9,35.2C1.4,52.9,6.5,58,12.8,58l38,0.9h0h0
		c6.3,0,12.4-6,12.4-12.4v0v0l-0.8-35.2C62.4,5,57.2-0.2,50.9-0.2z"/>
	<path class="st1" d="M59.4,11.4l0.8,35.2c0,4.7-4.7,9.4-9.4,9.4l-38-0.9c-4.7,0-8.5-3.8-8.5-8.5L3.5,11.4c0-4.7,4.7-8.5,9.4-8.5h38
		C55.6,2.8,59.4,6.6,59.4,11.4z M47.7,29.9v-2c0-0.4-0.6-1.1-1-1.2c-0.8-0.1-1.7-0.3-2.5-0.4c-0.3,0-0.6,0-0.7-0.1
		c-0.2-0.1-0.1-0.3-0.2-0.4c-0.2-0.5-0.3-1.1-0.6-1.6c-0.1-0.2-0.3-0.6-0.3-0.7c0-0.1,1.4-1.8,2-2.6c0.1-0.2,0.3-0.6,0.3-0.8
		c0-0.1-0.1-0.5-0.2-0.7c-0.8-0.9-1.3-2-2.4-2c-0.7,0-3.2,1.9-3.4,1.9c-0.1,0-1.3-0.8-1.9-1.1c-0.5-0.2-0.9-0.4-1.4-0.5
		c-0.3-0.1-0.7-0.1-0.8-0.3c-0.2-0.4-0.1-0.8-0.2-1.1c-0.1-0.6-0.2-1.1-0.3-1.7c-0.1-0.4-0.2-0.9-0.6-1.2c-0.5-0.3-1.2-0.3-1.7-0.3
		c-2.5,0-2.1,0.5-2.7,3.7c0,0.2,0,0.4-0.1,0.5c-0.1,0.2-0.5,0.2-0.6,0.2c-0.4,0.1-0.9,0.3-1.2,0.4c-0.6,0.2-1.5,0.8-1.6,0.8
		c-0.1,0-1.9-1.3-2.8-2c-0.2-0.1-0.4-0.1-0.5-0.1c-0.1,0-0.7,0.1-0.7,0.2c-0.6,0.5-1.2,1.1-1.7,1.7c-0.2,0.2-0.2,0.5-0.2,0.8
		c0,0.1,0,0.4,0.1,0.5c0.6,1,2,2.8,2,2.8c0,0.1-0.4,0.7-0.5,1c-0.3,0.5-0.5,1.1-0.7,1.7c-0.1,0.2-0.1,0.4-0.2,0.6
		c-0.1,0.2-0.6,0.1-0.8,0.2c-0.5,0.1-0.9,0.1-1.3,0.2c-0.2,0-0.4,0-0.5,0.1c-0.3,0-0.5,0.1-0.6,0.1c-0.5,0-1.1,0.8-1.1,1.2v2.1
		c0,0.4,0.5,1.1,1.1,1.2c1.1,0.1,2.2,0.3,3.2,0.6c0.1,0,0.1,0.2,0.1,0.3c0,0.3,0.1,0.5,0.2,0.7c0.1,0.4,0.3,0.9,0.6,1.4
		c0,0.1,0.2,0.3,0.2,0.4c0,0.1-1.5,1.7-2.1,2.7c-0.2,0.3-0.2,0.5-0.2,0.7c0,0.1,0,0.3,0.1,0.5c0.1,0.3,0.6,0.8,0.9,1.1
		c0.3,0.3,0.5,0.6,0.8,0.8c0.3,0.3,0.5,0.3,0.8,0.3c0.1,0,0.3,0,0.6-0.1c0.9-0.6,2.8-1.8,2.9-1.8c0.1,0,0.8,0.4,1.1,0.6
		c0.5,0.3,1.1,0.5,1.5,0.7c0.3,0.1,0.6,0.2,0.9,0.3c0.1,0,0.3,0,0.3,0.2c0.3,1,0.3,2.1,0.5,3.1c0.3,1.3,1.5,1.1,2.3,1.1
		c1.3,0,2.2,0.2,2.4-2.1c0-0.3,0.1-0.7,0.2-1c0.1-0.4,0-0.8,0.2-1.1c0.1-0.3,0.4-0.2,0.8-0.3c0.6-0.2,1.3-0.5,1.9-0.8
		c0.2-0.1,0.5-0.3,0.6-0.3c0.1,0,1.9,1.4,2.8,2c0.2,0.2,0.5,0.2,0.6,0.2c0.2,0,0.5-0.1,0.7-0.2c0.6-0.5,1.5-1.3,1.8-1.9
		c0.1-0.1,0.1-0.4,0.1-0.5c0-0.1,0-0.3-0.1-0.4c-0.4-0.9-2-2.9-2-3.1c0-0.1,0.5-0.9,0.6-1.3c0.1-0.3,0.3-0.6,0.3-0.8
		c0.1-0.2,0.1-0.3,0.1-0.4c0.1-0.2,0.2-0.4,0.2-0.7c0,0,0.1-0.1,0.1-0.2c0.9-0.1,1.8-0.3,2.7-0.5c0.2,0,0.4,0,0.5-0.1
		C47.1,31,47.7,30.3,47.7,29.9z"/>
	<path class="st0" d="M47.7,27.8v2c0,0.5-0.6,1.2-1,1.2c-0.2,0-0.4,0-0.5,0.1c-0.9,0.1-1.8,0.3-2.7,0.5c0,0-0.1,0.1-0.1,0.2
		c0,0.2-0.1,0.5-0.2,0.7c0,0.1-0.1,0.3-0.1,0.4c-0.1,0.2-0.2,0.5-0.3,0.8C42.5,34.1,42,34.9,42,35c0,0.2,1.7,2.2,2,3.1
		c0,0.1,0.1,0.3,0.1,0.4c0,0.1,0,0.4-0.1,0.5c-0.3,0.6-1.2,1.4-1.8,1.9c-0.2,0.1-0.6,0.2-0.7,0.2c-0.2,0-0.5,0-0.6-0.2
		c-1-0.6-2.8-2-2.8-2c-0.1,0-0.4,0.2-0.6,0.3c-0.6,0.3-1.3,0.6-1.9,0.8c-0.3,0.1-0.7,0-0.8,0.3c-0.1,0.3-0.1,0.8-0.2,1.1
		c0,0.3-0.1,0.7-0.2,1c-0.2,2.3-1.1,2.1-2.4,2.1c-0.8,0-2,0.2-2.3-1.1c-0.3-1-0.3-2.1-0.5-3.1c0-0.1-0.2-0.1-0.3-0.2
		c-0.3-0.1-0.6-0.2-0.9-0.3c-0.5-0.2-1.1-0.4-1.5-0.7c-0.4-0.2-1-0.6-1.1-0.6c-0.1,0-1.9,1.2-2.9,1.8c-0.3,0.1-0.5,0.1-0.6,0.1
		c-0.3,0-0.5,0-0.8-0.3c-0.3-0.2-0.6-0.5-0.8-0.8c-0.3-0.3-0.8-0.9-0.9-1.1c0-0.2-0.1-0.4-0.1-0.5c0-0.3,0-0.5,0.2-0.7
		c0.7-0.9,2.1-2.6,2.1-2.7c0-0.1-0.2-0.3-0.2-0.4c-0.2-0.5-0.4-0.9-0.6-1.4c-0.1-0.2-0.2-0.5-0.2-0.7c0-0.1,0-0.3-0.1-0.3
		c-1.1-0.3-2.2-0.4-3.2-0.6c-0.6-0.1-1.1-0.8-1.1-1.2v-2.1c0-0.5,0.6-1.2,1.1-1.2c0.2,0,0.4-0.1,0.6-0.1c0.1,0,0.3,0,0.5-0.1
		c0.4-0.1,0.9-0.1,1.3-0.2c0.2,0,0.7,0,0.8-0.2c0.1-0.2,0.1-0.5,0.2-0.6c0.2-0.6,0.4-1.2,0.7-1.7c0.1-0.3,0.5-0.9,0.5-1
		c0-0.1-1.3-1.9-2-2.8c-0.1-0.1-0.1-0.4-0.1-0.5c0-0.2,0-0.5,0.2-0.8c0.6-0.6,1.1-1.2,1.7-1.7c0-0.1,0.6-0.2,0.7-0.2
		c0.1,0,0.4,0,0.5,0.1c1,0.6,2.8,2,2.8,2c0.1,0,1.1-0.6,1.6-0.8c0.3-0.1,0.8-0.3,1.2-0.4c0.1,0,0.5-0.1,0.6-0.2
		c0.1-0.1,0.1-0.3,0.1-0.5c0.6-3.3,0.2-3.7,2.7-3.7c0.5,0,1.2-0.1,1.7,0.3c0.4,0.3,0.5,0.8,0.6,1.2c0.1,0.6,0.2,1.1,0.3,1.7
		c0.1,0.3,0,0.7,0.2,1.1c0.1,0.2,0.5,0.2,0.8,0.3c0.5,0.1,0.9,0.3,1.4,0.5c0.6,0.3,1.8,1.1,1.9,1.1c0.2,0,2.7-1.9,3.4-1.9
		c1,0,1.6,1.1,2.4,2c0.2,0.1,0.2,0.6,0.2,0.7c0,0.2-0.1,0.6-0.3,0.8c-0.7,0.9-2,2.5-2,2.6c0,0.1,0.2,0.5,0.3,0.7
		c0.2,0.5,0.4,1.1,0.6,1.6c0,0.1,0,0.3,0.2,0.4c0.2,0.1,0.5,0.1,0.7,0.1c0.8,0.1,1.7,0.3,2.5,0.4C47.1,26.7,47.7,27.4,47.7,27.8z
		 M37.9,28.8c0-3.2-2.6-5.9-6-5.9c-3.2,0-5.9,2.6-5.9,5.9c0,3.2,2.6,6,6,6C35.2,34.8,37.9,32.1,37.9,28.8z"/>
</g>
</svg>
