<?xml version="1.0" encoding="utf-8"?>
<!-- Generator: Adobe Illustrator 22.0.0, SVG Export Plug-In . SVG Version: 6.00 Build 0)  -->
<svg version="1.1" id="Layer_1" xmlns="http://www.w3.org/2000/svg" xmlns:xlink="http://www.w3.org/1999/xlink" x="0px" y="0px"
	 viewBox="0 0 63.8 65.3" style="enable-background:new 0 0 63.8 65.3;" xml:space="preserve">
<style type="text/css">
	.st0{fill:#385D99;}
	.st1{fill:#FFFFFF;}
</style>
<path class="st0" d="M13.2,57c-5.5,0-10-4.5-10-10L2.4,11.8c0-5.4,5.1-10.1,10.9-10.1h38c5.5,0,10,4.5,10,10l0.9,35.2
	c0,5.5-5.4,10.9-10.9,10.9L13.2,57z"/>
<g>
	<path d="M51.2,3.3c4.7,0,8.5,3.8,8.5,8.5L60.6,47c0,4.7-4.7,9.4-9.4,9.4l-38-0.9c-4.7,0-8.5-3.8-8.5-8.5L3.9,11.8
		c0-4.7,4.7-8.5,9.4-8.5L51.2,3.3 M51.2,0.3h-38C6.6,0.3,0.9,5.6,0.9,11.8v0l0,0L1.7,47c0,6.3,5.2,11.5,11.5,11.5l38,0.9l0,0h0
		c6.4,0,12.4-6,12.4-12.4v0l0,0l-0.9-35.2C62.7,5.4,57.6,0.3,51.2,0.3L51.2,0.3z"/>
</g>
<path class="st1" d="M38.5,31l0.6-4.8h-4.8v-3.1c0-1.4,0.4-2.4,2.4-2.4l2.6,0v-4.3c-0.4-0.1-2-0.2-3.7-0.2c-3.7,0-6.2,2.3-6.2,6.4
	v3.6h-4.2V31h4.2v12.4h5V31H38.5z"/>
</svg>
