<?xml version="1.0" encoding="utf-8"?>
<!-- Generator: Adobe Illustrator 22.0.0, SVG Export Plug-In . SVG Version: 6.00 Build 0)  -->
<svg version="1.1" id="Layer_1" xmlns="http://www.w3.org/2000/svg" xmlns:xlink="http://www.w3.org/1999/xlink" x="0px" y="0px"
	 viewBox="0 0 324.5 65.4" style="enable-background:new 0 0 324.5 65.4;" xml:space="preserve">
<style type="text/css">
	.st0{opacity:0.1;}
	.st1{fill:#D1D400;stroke:#000000;stroke-miterlimit:10;}
	.st2{clip-path:url(#SVGID_2_);}
</style>
<g class="st0">
	<path d="M323.6,56.1c0,4.7-5,9.4-10.1,9.4L11,64.6c-5.1,0-9.2-3.8-9.2-8.5L0.9,20.9c0-4.7,5-8.5,10.1-8.5h302.5
		c5.1,0,9.2,3.8,9.2,8.5L323.6,56.1z"/>
</g>
<path class="st1" d="M12.5,56.7c-5.5,0-10-4.5-10-10L1.6,11.6c0-5.4,5.1-10.1,10.9-10.1h299.7c5.5,0,10,4.5,10,10l0.9,35.2
	c0,5.5-5.4,10.9-10.9,10.9L12.5,56.7z"/>
<path d="M312.2,3c4.7,0,8.5,3.8,8.5,8.5l0.9,35.2c0,4.7-4.7,9.4-9.4,9.4L12.5,55.2c-4.7,0-8.5-3.8-8.5-8.5L3.1,11.5
	C3.1,6.8,7.8,3,12.5,3H312.2 M312.2,0H12.5C5.9,0,0.1,5.4,0.1,11.5v0l0,0L1,46.7c0,6.3,5.2,11.5,11.5,11.5l299.7,0.9
	c6.4,0,12.4-6,12.4-12.4v0v0l-0.9-35.2C323.7,5.1,318.5,0,312.2,0L312.2,0z"/>
<g>
	<defs>
		<path id="SVGID_1_" d="M321.5,46.7c0,4.7-4.7,9.4-9.4,9.4L12.5,55.2c-4.7,0-8.5-3.8-8.5-8.5L3.1,11.5C3.1,6.8,7.8,3,12.5,3h299.7
			c4.7,0,8.5,3.8,8.5,8.5L321.5,46.7z"/>
	</defs>
	<clipPath id="SVGID_2_">
		<use xlink:href="#SVGID_1_"  style="overflow:visible;"/>
	</clipPath>
	<path class="st2" d="M3.1,11.5c0,0,5,17.8,11,23.3c6,5.5,12.8,6.6,22.6,6.6s284.9-6.8,284.9-6.8l1.5,21.4l-7.6,6H11.4L-5.9,51.5
		L3.1,11.5z"/>
</g>
</svg>
