<?xml version="1.0" encoding="utf-8"?>
<!-- Generator: Adobe Illustrator 16.0.0, SVG Export Plug-In . SVG Version: 6.00 Build 0)  -->
<!DOCTYPE svg PUBLIC "-//W3C//DTD SVG 1.1//EN" "http://www.w3.org/Graphics/SVG/1.1/DTD/svg11.dtd">
<svg version="1.1" id="Layer_1" xmlns="http://www.w3.org/2000/svg" xmlns:xlink="http://www.w3.org/1999/xlink" x="0px" y="0px"
	 width="142.896px" height="65.436px" viewBox="0 0 142.896 65.436" enable-background="new 0 0 142.896 65.436"
	 xml:space="preserve">
<g>
	<g>
		<g opacity="0.1">
			<path fill="#010101" d="M142.029,56.07c0,4.703-5.014,9.365-10.07,9.365L11.07,64.585c-5.056,0-9.155-3.812-9.155-8.517L1,20.88
				c0-4.702,5.016-8.515,10.07-8.515h120.889c5.058,0,9.154,3.812,9.154,8.515L142.029,56.07z"/>
		</g>
		<g>
			<path fill="#FFFFFF" d="M12.482,56.719c-5.503,0-9.995-4.492-9.995-10.014L1.636,11.551C1.636,6.18,6.713,1.5,12.501,1.5h118.028
				c5.521,0,10.014,4.493,10.014,10.015l0.853,35.154c0,5.52-5.381,10.899-10.865,10.899L12.482,56.719z"/>
			<path fill="#61BAE9" d="M130.529,3c4.701,0,8.514,3.812,8.514,8.515l0.853,35.19c0,4.703-4.664,9.363-9.365,9.363L12.503,55.217
				c-4.701,0-8.514-3.811-8.514-8.514l-0.852-35.19C3.136,6.812,7.8,3,12.501,3H130.529 M130.529,0H12.501
				C5.914,0,0.136,5.381,0.136,11.515v0.036l0.001,0.037l0.851,35.157C1.009,53.076,6.166,58.22,12.502,58.22l117.991,0.852
				c6.395,0,12.403-6.009,12.403-12.363v-0.036l-0.002-0.037l-0.852-35.157C142.021,5.144,136.865,0,130.529,0L130.529,0z"/>
		</g>
		<path fill="#C5E8FA" d="M130.717,9.502c-0.276-1.147-1.504-1.845-2.666-2.271c-4.7-1.714-10.011-1.124-14.848,0.215
			c-1.024,0.284-2.094,0.635-2.788,1.397c-0.693,0.766-0.824,2.075,0.005,2.709c0.335,0.256,0.767,0.365,1.185,0.463
			c4.607,1.075,9.398,1.458,14.138,1.13c1.194-0.083,2.432-0.225,3.457-0.81C130.223,11.75,130.982,10.605,130.717,9.502z"/>
		<g>
			<g>
				<g>
					<defs>
						<path id="SVGID_1_" d="M139.895,46.705c0,4.703-4.664,9.363-9.365,9.363L12.503,55.217c-4.701,0-8.514-3.811-8.514-8.514
							l-0.852-35.19C3.136,6.812,7.8,3,12.501,3h118.028c4.701,0,8.514,3.812,8.514,8.515L139.895,46.705z"/>
					</defs>
					<clipPath id="SVGID_2_">
						<use xlink:href="#SVGID_1_"  overflow="visible"/>
					</clipPath>
					<path clip-path="url(#SVGID_2_)" fill="#C5E8FA" d="M3.136,11.515c0,0,5.036,17.81,10.996,23.343s12.771,6.6,22.562,6.6
						s103.2-6.812,103.2-6.812l1.489,21.426l-7.579,6.031H11.365l-17.24-10.643L3.136,11.515z"/>
				</g>
			</g>
		</g>
	</g>
</g>
</svg>
