<?xml version="1.0" encoding="utf-8"?>
<!-- Generator: Adobe Illustrator 16.0.0, SVG Export Plug-In . SVG Version: 6.00 Build 0)  -->
<!DOCTYPE svg PUBLIC "-//W3C//DTD SVG 1.1//EN" "http://www.w3.org/Graphics/SVG/1.1/DTD/svg11.dtd">
<svg version="1.1" id="Layer_1" xmlns="http://www.w3.org/2000/svg" xmlns:xlink="http://www.w3.org/1999/xlink" x="0px" y="0px"
	 width="143.5px" height="65.436px" viewBox="0 0 143.5 65.436" enable-background="new 0 0 143.5 65.436" xml:space="preserve">
<g>
	<g>
		<g opacity="0.1">
			<path fill="#010101" d="M142.029,56.07c0,4.703-5.014,9.365-10.07,9.365L11.07,64.585c-5.056,0-9.155-3.812-9.155-8.515L1,20.88
				c0-4.702,5.015-8.515,10.07-8.515h120.889c5.057,0,9.154,3.812,9.154,8.515L142.029,56.07z"/>
		</g>
		<g>
			<path fill="#FFFFFF" d="M12.49,56.719c-5.511,0-10.003-4.492-10.003-10.014L1.636,11.551C1.636,6.18,6.713,1.5,12.501,1.5
				h118.028c5.521,0,10.014,4.493,10.014,10.015l0.851,35.154c0,5.52-5.381,10.901-10.865,10.901L12.49,56.719z"/>
			<path fill="#61BAE9" d="M130.529,3c4.701,0,8.514,3.812,8.514,8.515l0.852,35.19c0,4.703-4.664,9.365-9.365,9.365L12.501,55.219
				c-4.701,0-8.514-3.811-8.514-8.514l-0.852-35.19C3.136,6.812,7.8,3,12.501,3H130.529 M130.529,0H12.501
				C5.914,0,0.136,5.381,0.136,11.515v0.036l0.001,0.037l0.851,35.157c0.021,6.331,5.178,11.475,11.514,11.475l118.007,0.852
				c6.377,0,12.387-6.009,12.387-12.365v-0.036l-0.001-0.037l-0.851-35.157C142.022,5.144,136.865,0,130.529,0L130.529,0z"/>
		</g>
		<path fill="#C5E8FA" d="M132.717,12.151c-0.277-1.147-1.504-1.845-2.666-2.27c-4.701-1.716-10.011-1.126-14.848,0.213
			c-1.025,0.284-2.093,0.633-2.788,1.397c-0.695,0.766-0.824,2.075,0.005,2.709c0.335,0.256,0.765,0.365,1.183,0.463
			c4.609,1.075,9.4,1.458,14.138,1.13c1.195-0.083,2.432-0.225,3.457-0.81C132.223,14.398,132.982,13.253,132.717,12.151z"/>
		<g>
			<defs>
				<path id="SVGID_1_" d="M139.895,46.705c0,4.703-4.664,9.365-9.365,9.365L12.501,55.219c-4.701,0-8.514-3.811-8.514-8.514
					l-0.852-35.19C3.136,6.812,7.8,3,12.501,3h118.028c4.701,0,8.514,3.812,8.514,8.515L139.895,46.705z"/>
			</defs>
			<clipPath id="SVGID_2_">
				<use xlink:href="#SVGID_1_"  overflow="visible"/>
			</clipPath>
			<path clip-path="url(#SVGID_2_)" fill="#C5E8FA" d="M3.136,11.515c0,0,5.037,17.808,10.997,23.343
				c5.96,5.533,12.771,6.598,22.562,6.598s103.2-6.811,103.2-6.811l1.49,21.426l-7.58,6.031H11.365l-17.24-10.643L3.136,11.515z"/>
		</g>
	</g>
</g>
</svg>
